<svg width="50" height="50" viewBox="0 0 50 50" fill="none" xmlns="http://www.w3.org/2000/svg">
<path d="M34.4634 24.5767C33.5796 20.7635 32.2496 18.7282 30.2765 18.1722C29.8618 18.0561 29.4316 17.9981 28.9994 18C28.4281 18 27.9306 18.1329 27.4043 18.2736C26.7701 18.4434 26.0496 18.6363 24.9991 18.6363C23.9487 18.6363 23.2278 18.4438 22.5923 18.274C22.0656 18.1329 21.5685 18 20.9989 18C20.552 17.9985 20.107 18.0564 19.6768 18.1718C17.7141 18.7254 16.3849 20.7599 15.4882 24.5743C14.524 28.6791 14.9986 31.2707 16.8191 31.872C17.0686 31.9559 17.3312 31.9992 17.5958 32C18.843 32 19.843 31.0086 20.5264 30.197C21.2985 29.2784 22.2023 28.8123 24.9991 28.8123C27.4972 28.8123 28.531 29.1356 29.424 30.197C29.9853 30.8643 30.5157 31.3311 31.0449 31.625C31.7487 32.0155 32.4521 32.1022 33.135 31.8783C34.2109 31.528 34.8276 30.6018 34.9685 29.1249C35.0756 27.9923 34.9105 26.5046 34.4634 24.5767ZM22.999 24.3628H21.6656V25.6353C21.6656 25.8041 21.5954 25.9659 21.4703 26.0852C21.3453 26.2045 21.1757 26.2716 20.9989 26.2716C20.8221 26.2716 20.6525 26.2045 20.5275 26.0852C20.4024 25.9659 20.3322 25.8041 20.3322 25.6353V24.3628H18.9988C18.822 24.3628 18.6524 24.2957 18.5274 24.1764C18.4023 24.0571 18.3321 23.8952 18.3321 23.7265C18.3321 23.5577 18.4023 23.3959 18.5274 23.2766C18.6524 23.1573 18.822 23.0902 18.9988 23.0902H20.3322V21.8177C20.3322 21.6489 20.4024 21.4871 20.5275 21.3678C20.6525 21.2484 20.8221 21.1814 20.9989 21.1814C21.1757 21.1814 21.3453 21.2484 21.4703 21.3678C21.5954 21.4871 21.6656 21.6489 21.6656 21.8177V23.0902H22.999C23.1758 23.0902 23.3454 23.1573 23.4705 23.2766C23.5955 23.3959 23.6657 23.5577 23.6657 23.7265C23.6657 23.8952 23.5955 24.0571 23.4705 24.1764C23.3454 24.2957 23.1758 24.3628 22.999 24.3628ZM26.4992 24.5218C26.3344 24.5218 26.1733 24.4752 26.0362 24.3878C25.8992 24.3004 25.7924 24.1762 25.7293 24.0309C25.6662 23.8855 25.6497 23.7256 25.6819 23.5713C25.714 23.417 25.7934 23.2753 25.9099 23.1641C26.0265 23.0529 26.175 22.9771 26.3366 22.9464C26.4983 22.9157 26.6659 22.9315 26.8181 22.9917C26.9704 23.0519 27.1006 23.1538 27.1922 23.2846C27.2837 23.4154 27.3326 23.5692 27.3326 23.7265C27.3326 23.9374 27.2448 24.1397 27.0885 24.2889C26.9322 24.438 26.7203 24.5218 26.4992 24.5218ZM28.3327 26.2716C28.1678 26.2716 28.0065 26.2249 27.8694 26.1374C27.7324 26.0499 27.6255 25.9256 27.5625 25.7801C27.4995 25.6347 27.4831 25.4747 27.5155 25.3203C27.5478 25.166 27.6274 25.0243 27.7441 24.9131C27.8609 24.802 28.0096 24.7264 28.1714 24.6959C28.3332 24.6655 28.5008 24.6815 28.653 24.742C28.8053 24.8025 28.9353 24.9048 29.0266 25.0358C29.1179 25.1669 29.1665 25.3208 29.166 25.4782C29.1655 25.6888 29.0775 25.8906 28.9212 26.0393C28.765 26.1881 28.5533 26.2716 28.3327 26.2716ZM28.3327 22.7721C28.1678 22.7721 28.0067 22.7254 27.8697 22.638C27.7326 22.5506 27.6258 22.4264 27.5627 22.2811C27.4996 22.1358 27.4831 21.9759 27.5153 21.8216C27.5475 21.6673 27.6268 21.5256 27.7434 21.4144C27.8599 21.3031 28.0084 21.2274 28.1701 21.1967C28.3317 21.166 28.4993 21.1817 28.6516 21.2419C28.8039 21.3021 28.934 21.4041 29.0256 21.5349C29.1172 21.6657 29.166 21.8194 29.166 21.9767C29.166 22.1877 29.0782 22.39 28.922 22.5391C28.7657 22.6883 28.5537 22.7721 28.3327 22.7721ZM30.1661 24.5218C30.0013 24.5218 29.8402 24.4752 29.7031 24.3878C29.5661 24.3004 29.4592 24.1762 29.3962 24.0309C29.3331 23.8855 29.3166 23.7256 29.3487 23.5713C29.3809 23.417 29.4603 23.2753 29.5768 23.1641C29.6934 23.0529 29.8419 22.9771 30.0035 22.9464C30.1652 22.9157 30.3327 22.9315 30.485 22.9917C30.6373 23.0519 30.7675 23.1538 30.859 23.2846C30.9506 23.4154 30.9995 23.5692 30.9995 23.7265C30.9995 23.9374 30.9117 24.1397 30.7554 24.2889C30.5991 24.438 30.3871 24.5218 30.1661 24.5218Z" fill="#CDCDCD"/>
</svg>
