<svg width="50" height="50" viewBox="0 0 50 50" fill="none" xmlns="http://www.w3.org/2000/svg">
<path d="M18 21.15V19C18 17.9 18.9 17 20 17H30C31.1 17 32 17.9 32 19V21.16C30.84 21.57 30 22.67 30 23.97V26H20V23.96C20 22.67 19.16 21.56 18 21.15ZM33 22C31.9 22 31 22.9 31 24V27H19V24C19 23.4696 18.7893 22.9609 18.4142 22.5858C18.0391 22.2107 17.5304 22 17 22C16.4696 22 15.9609 22.2107 15.5858 22.5858C15.2107 22.9609 15 23.4696 15 24V29C15 30.1 15.9 31 17 31V33H19V31H31V33H33V31C34.1 31 35 30.1 35 29V24C35 22.9 34.1 22 33 22Z" fill="#CDCDCD"/>
</svg>
