<svg width="50" height="50" viewBox="0 0 50 50" fill="none" xmlns="http://www.w3.org/2000/svg">
<path d="M15 16.625C15 16.4592 15.0658 16.3003 15.1831 16.1831C15.3003 16.0658 15.4592 16 15.625 16H16.875C17.0408 16 17.1997 16.0658 17.3169 16.1831C17.4342 16.3003 17.5 16.4592 17.5 16.625V19.75H34.375C34.5408 19.75 34.6997 19.8158 34.8169 19.9331C34.9342 20.0503 35 20.2092 35 20.375V29.125C35 29.2908 34.9342 29.4497 34.8169 29.5669C34.6997 29.6842 34.5408 29.75 34.375 29.75H17.5V32.875C17.5 33.0408 17.4342 33.1997 17.3169 33.3169C17.1997 33.4342 17.0408 33.5 16.875 33.5C16.7092 33.5 16.5503 33.4342 16.4331 33.3169C16.3158 33.1997 16.25 33.0408 16.25 32.875V17.25H15.625C15.4592 17.25 15.3003 17.1842 15.1831 17.0669C15.0658 16.9497 15 16.7908 15 16.625Z" fill="#CDCDCD"/>
<path d="M18.75 30.375H23.125V31.625C23.125 31.7908 23.0592 31.9497 22.9419 32.0669C22.8247 32.1842 22.6658 32.25 22.5 32.25H19.375C19.2092 32.25 19.0503 32.1842 18.9331 32.0669C18.8158 31.9497 18.75 31.7908 18.75 31.625V30.375ZM23.75 30.375H28.75V31.625C28.75 31.7908 28.6842 31.9497 28.5669 32.0669C28.4497 32.1842 28.2908 32.25 28.125 32.25H24.375C24.2092 32.25 24.0503 32.1842 23.9331 32.0669C23.8158 31.9497 23.75 31.7908 23.75 31.625V30.375Z" fill="#CDCDCD"/>
</svg>
